<?xml version="1.0" encoding="UTF-8"?>
<svg id="Calque_1" xmlns="http://www.w3.org/2000/svg" version="1.1" viewBox="0 0 400 141.8">
  <!-- Generator: Adobe Illustrator 29.1.0, SVG Export Plug-In . SVG Version: 2.1.0 Build 142)  -->
  <polygon points="11.5 36.3 0 39.2 0 26.2 12.2 22.3 11.5 36.3" style="fill: #fcc000;"/>
  <polygon points="13.3 62.9 0 62.9 0 46.8 14.2 44.8 13.3 62.9" style="fill: #fcc000;"/>
  <polygon points="9.2 83.7 0 81.6 0 70.4 9.8 71.7 9.2 83.7" style="fill: #fcc000;"/>
  <polygon points="10.7 114.3 0 106.3 0 89.7 11.7 94.7 10.7 114.3" style="fill: #fcc000;"/>
  <polygon points="27 95 15.3 91.1 16.5 72.6 29.3 74.3 27 95" style="fill: #fcc000;"/>
  <polygon points="29 62.9 20.3 62.9 21.3 50.3 30.8 49.5 29 62.9" style="fill: #fcc000;"/>
  <polygon points="33.4 38.8 18.5 41.5 19.9 19.8 36.2 14.6 33.4 38.8" style="fill: #fcc000;"/>
  <polygon points="21.2 122 15.9 118.1 16.9 104.6 23 107.9 21.2 122" style="fill: #fcc000;"/>
  <polygon points="54 25.5 41.9 28.6 44.4 11.9 57.1 7.8 54 25.5" style="fill: #fcc000;"/>
  <polygon points="47.5 62.9 34.5 62.9 37.7 41.5 51.5 39.6 47.5 62.9" style="fill: #fcc000;"/>
  <polygon points="42.5 91.5 32.9 89.2 35 75.1 45.1 76.4 42.5 91.5" style="fill: #fcc000;"/>
  <polygon points="35.4 132.5 25.2 125 28.7 102 39.8 106.8 35.4 132.5" style="fill: #fcc000;"/>
  <polygon points="56.2 104.9 44.6 101 49.2 77 62.5 78.7 56.2 104.9" style="fill: #fcc000;"/>
  <polygon points="46.1 140.5 39.4 135.5 42.9 118.7 50.1 122.6 46.1 140.5" style="fill: #fcc000;"/>
  <polygon points="63.5 62.9 54.4 62.9 57.7 47.2 67.3 46.3 63.5 62.9" style="fill: #fcc000;"/>
  <polygon points="73.9 31.4 57.3 34.4 62.8 6 81.4 0 73.9 31.4" style="fill: #fcc000;"/>
  <polygon points="120.6 105.5 132.1 102.6 132.1 115.6 119.9 119.5 120.6 105.5" style="fill: #fcc000;"/>
  <polygon points="118.9 78.9 132.1 78.9 132.1 95 118 97 118.9 78.9" style="fill: #fcc000;"/>
  <polygon points="123 58.1 132.1 60.2 132.1 71.4 122.4 70.1 123 58.1" style="fill: #fcc000;"/>
  <polygon points="121.4 27.6 132.1 35.5 132.1 52.2 120.4 47.1 121.4 27.6" style="fill: #fcc000;"/>
  <polygon points="105.2 46.8 116.8 50.7 115.7 69.2 102.8 67.5 105.2 46.8" style="fill: #fcc000;"/>
  <polygon points="103.1 78.9 111.9 78.9 110.9 91.5 101.4 92.3 103.1 78.9" style="fill: #fcc000;"/>
  <polygon points="98.7 103 113.7 100.3 112.3 122 95.9 127.2 98.7 103" style="fill: #fcc000;"/>
  <polygon points="111 19.8 116.3 23.7 115.2 37.2 109.1 33.9 111 19.8" style="fill: #fcc000;"/>
  <polygon points="78.2 116.3 90.2 113.2 87.7 129.9 75.1 134 78.2 116.3" style="fill: #fcc000;"/>
  <polygon points="84.7 78.9 97.6 78.9 94.4 100.3 80.6 102.2 84.7 78.9" style="fill: #fcc000;"/>
  <polygon points="89.6 50.4 99.3 52.6 97.2 66.7 87 65.4 89.6 50.4" style="fill: #fcc000;"/>
  <polygon points="96.8 9.3 106.9 16.8 103.5 39.8 92.3 35.1 96.8 9.3" style="fill: #fcc000;"/>
  <polygon points="75.9 36.9 87.6 40.8 83 64.9 69.6 63.1 75.9 36.9" style="fill: #fcc000;"/>
  <polygon points="86.1 1.4 92.8 6.3 89.3 23.2 82.1 19.2 86.1 1.4" style="fill: #fcc000;"/>
  <polygon points="68.6 78.9 77.7 78.9 74.5 94.6 64.9 95.5 68.6 78.9" style="fill: #fcc000;"/>
  <polygon points="58.3 110.4 74.8 107.4 69.4 135.8 50.8 141.8 58.3 110.4" style="fill: #fcc000;"/>
  <g>
    <path d="M177.3,107.2h-2.4l-1.1-7.1-3.3,7.1h-.6l-3.3-7.1-1.1,7.1h-2.4l1.7-10.9h2.4l3,6.7,3-6.7h2.4l1.7,10.9h0Z" style="fill: #112948;"/>
    <path d="M194.8,105h4.4v2.2h-6.7v-10.9h6.6v2.2h-4.2v2.2h3.8v2.1h-3.8v2.3h-.1Z" style="fill: #112948;"/>
    <path d="M222.9,107.2h-2.7l-2.2-3.8-2.2,3.8h-2.7l3.4-5.7-3.2-5.2h2.7l2,3.4,2-3.4h2.6l-3.1,5.3,3.4,5.7h0Z" style="fill: #112948;"/>
    <path d="M237.5,107.2v-10.9h2.4v10.9h-2.4Z" style="fill: #112948;"/>
    <path d="M260.7,107.4c-1.1,0-2-.2-2.9-.7s-1.5-1.2-2-2c-.5-.9-.7-1.8-.7-2.9,0-1.6.5-3,1.6-4.1,1.1-1.1,2.4-1.6,4-1.6s2.5.4,3.5,1.2c1,.8,1.6,1.9,1.8,3.2h-2.4c-.1-.4-.4-.8-.6-1.1s-.6-.6-1-.7-.8-.3-1.3-.3c-.9,0-1.7.3-2.3,1-.6.7-.9,1.5-.9,2.5s.3,1.8.9,2.5,1.4,1,2.3,1,1.3-.2,1.9-.6.9-1,1.1-1.7h2.4c-.2,1.4-.9,2.4-1.8,3.3-1,.8-2.1,1.2-3.5,1.2v-.2Z" style="fill: #112948;"/>
    <path d="M286.2,107.4c-1.7,0-3.1-.5-4.2-1.6s-1.7-2.4-1.7-4.1.6-3,1.7-4.1,2.5-1.6,4.2-1.6,2.1.2,3,.7,1.6,1.2,2.1,2c.5.9.8,1.8.8,2.9,0,1.6-.6,3-1.7,4.1s-2.5,1.6-4.2,1.6h0ZM286.2,105.2c.6,0,1.2,0,1.8-.4s.9-.7,1.2-1.2c.3-.5.4-1.1.4-1.8,0-1-.3-1.8-1-2.5s-1.5-1-2.4-1-1.8.3-2.5,1-1,1.5-1,2.5.3,1.8,1,2.5,1.5,1,2.4,1h.1Z" style="fill: #112948;"/>
  </g>
  <rect x="270" y="41.7" width="8.5" height="34.7" style="fill: #112948;"/>
  <polygon points="258.5 76.4 228.7 76.4 228.7 67.9 253.8 67.9 255.2 65.6 253.8 63.3 228.7 63.3 228.7 54.8 253.8 54.8 255.2 52.5 253.8 50.2 228.7 50.2 228.7 41.7 258.5 41.7 265.4 52.5 261.2 59.1 265.4 65.6 258.5 76.4" style="fill: #112948;"/>
  <polygon points="358.7 76.4 328.9 76.4 328.9 67.9 354 67.9 355.5 65.6 354 63.3 328.9 63.3 328.9 54.8 354 54.8 355.5 52.5 354 50.2 328.9 50.2 328.9 41.7 358.7 41.7 365.6 52.5 361.5 59.1 365.6 65.6 358.7 76.4" style="fill: #fcc000;"/>
  <polygon points="395.9 59.1 400 65.6 393.1 76.4 363.3 76.4 368.7 67.9 388.4 67.9 389.9 65.6 388.4 63.3 368.7 63.3 366 59.1 368.7 54.8 388.4 54.8 389.9 52.5 388.4 50.2 368.7 50.2 363.3 41.7 393.1 41.7 400 52.5 395.9 59.1" style="fill: #fcc000;"/>
  <polygon points="283.1 59 294.1 41.7 319.8 41.7 319.8 50.2 298.8 50.2 293.2 59 298.8 67.9 319.8 67.9 319.8 76.4 294.1 76.4 283.1 59" style="fill: #112948;"/>
  <polygon points="148.1 59 159.1 41.7 184.8 41.7 184.8 50.2 163.8 50.2 158.2 59 163.8 67.9 184.8 67.9 184.8 76.4 159.1 76.4 148.1 59" style="fill: #112948;"/>
  <polygon points="224.1 41.7 224.1 75 206.7 79.1 189.3 75 189.3 41.7 197.9 41.7 197.9 68.4 206.7 70.5 215.5 68.4 215.5 41.7 224.1 41.7" style="fill: #112948;"/>
</svg>